<svg id="Community_Development_Orange_v2" data-name="Community Development Orange v2" xmlns="http://www.w3.org/2000/svg" viewBox="0 0 572 572"><defs><style>.cls-1{fill:#fff;}.cls-2{fill:#e7600c;}</style></defs><title>community-development-orange-v2</title><path class="cls-1" d="M302,585c158,0,286-128,286-286S459.95,13,302,13,16,141.07,16,299,144,585,302,585" transform="translate(-16 -13)"/><path class="cls-2" d="M158.59,190.66c9.91-.19,19.06,8.83,19.27,19,.21,10-8.68,19.12-18.88,19.34-10,.22-19.1-8.76-19.27-18.95C139.56,200,148.5,190.85,158.59,190.66Z" transform="translate(-16 -13)"/><path class="cls-2" d="M312.86,204.9a17,17,0,0,1,2.9,1.64C308.38,201.63,308.24,201.65,312.86,204.9Z" transform="translate(-16 -13)"/><path class="cls-2" d="M425.51,283.19c-29.62-21-97.33-67.49-112.65-78.29a6.37,6.37,0,0,0-5.51.2c-30.71,14.61-75.34,39-111.8,56.31-3.7,1.76-8,4.75-6.91,9.08l1.57,2.52a7.62,7.62,0,0,0,3.37,1.53c7,1.55,14,3.31,20.94,5.19a13.29,13.29,0,0,1,6.27,3.41c26.83-12.7,62.81-34.27,81.36-43.18,4.46-2.14,7.61-1.65,11.52,1.07,32.32,22.47,64.83,44.65,97.09,67.2,4.77,3.34,7.56,3.28,10.53-1.74a98.76,98.76,0,0,1,6.69-9C434.17,289.31,434.17,289.33,425.51,283.19Z" transform="translate(-16 -13)"/><path class="cls-2" d="M138.62,333.45q-6.38,26.28-12.76,52.56c-3,12.37-5.93,24.76-9,37.11-2.23,9-8.62,13.52-16.4,11.69-8.14-1.92-12.1-8.86-9.92-18Q110.25,333.85,130,250.95c3.87-16.36,21.93-22.38,33.26-11.68,3.87,3.66,5.51,8.65,6.85,13.63,2,7.48,3.94,15,5.51,22.57.7,3.39,2.26,5,5.57,5.73,7,1.55,14,3.31,20.94,5.19,6.65,1.8,9.56,6.09,8.16,11.56s-6.16,8-12.68,6.45c-7.71-1.84-15.31-4.25-23.08-5.77-8-1.56-14.07-4.6-14.32-14.64-3.11,6.66-3.22,8.07-1.74,14.25Q172.77,358,187,417.75c2,8.46-2.34,15.41-10.4,17.15-7.66,1.66-14.05-3-16.19-12.11-3.13-13.29-6.11-26.61-9.18-39.91q-5.71-24.75-11.45-49.49Z" transform="translate(-16 -13)"/><path class="cls-2" d="M413.7,219.11c.76-9.17.85-24.28,1.65-33.44.47-5.35-1.08-7.74-6.75-7.85-9.61-.19-19.24-.75-28.82-1.56-5.37-.45-8.1,1.14-7.64,6.84.11,1.39-1.07,10.83-1.08,12.24C371.05,195.33,412.09,218.2,413.7,219.11Z" transform="translate(-16 -13)"/><path class="cls-2" d="M467.1,312.21c4.25,17.52,23.12,98.55,26.17,110.91,2.23,9,8.62,13.52,16.4,11.69,8.14-1.92,12.1-8.86,9.92-18C509.86,375.79,497.73,331,488,290c-3.4-14.3-7.12-45.61-7.85-60.29-1-20.65-24.62-24.65-33.26-11.68-6.58,9.88-13.23,19.85-23.21,21-6.38.71-16.11-6.92-25.92-12-6.37-3.33-12.49-7.13-18.85-10.5-6.08-3.23-11.15-2.08-13.86,2.88s-1,10.06,4.86,13.37c6.89,3.92,14.09,7.35,20.8,11.54,39.62,20.26,38.51,15.83,56.77,4.8a.93.93,0,0,1,1.35.91c-.91,11.42-16.22,128-25.67,167.8-2,8.46,2.34,15.41,10.4,17.15,7.66,1.66,14.05-3,16.19-12.11,3.13-13.29,12.36-94.1,16.17-110.57Z" transform="translate(-16 -13)"/><path class="cls-2" d="M462.65,162.77c-9.91-.19-19.06,8.83-19.27,19-.21,10,8.68,19.12,18.88,19.34,10,.22,19.1-8.76,19.27-18.95C481.68,172.16,472.74,163,462.65,162.77Z" transform="translate(-16 -13)"/><path class="cls-2" d="M392.8,374.08c0-17.54-.14-35.07.1-52.61.06-4.48-1.13-7.22-5.21-9.52q-40.26-22.7-80.23-45.89c-3.4-2-6-2.13-9.51-.05-16.31,9.72-78.82,45.77-79.77,46.3-7.63,4.25-6.74,15-6.74,14.86s0,104,.09,104.54c.83,4.26,4.91,2.67,4.92,3.41.3,0,169.29.1,170.06.11,4.9.08,6.46-1.53,6.39-6.44C392.65,410.56,392.79,392.32,392.8,374.08ZM296.87,398.8a3.35,3.35,0,0,1-3.34,3.34H266.78a3.35,3.35,0,0,1-3.34-3.34V372.06a3.35,3.35,0,0,1,3.34-3.34h26.74a3.35,3.35,0,0,1,3.34,3.34Zm0-44.13a3.35,3.35,0,0,1-3.34,3.34H266.78a3.35,3.35,0,0,1-3.34-3.34V327.93a3.35,3.35,0,0,1,3.34-3.34h26.74a3.35,3.35,0,0,1,3.34,3.34Zm44.79,44.13a3.35,3.35,0,0,1-3.34,3.34H311.57a3.35,3.35,0,0,1-3.34-3.34V372.06a3.35,3.35,0,0,1,3.34-3.34h26.74a3.35,3.35,0,0,1,3.34,3.34Zm0-44.13a3.35,3.35,0,0,1-3.34,3.34H311.57a3.35,3.35,0,0,1-3.34-3.34V327.93a3.35,3.35,0,0,1,3.34-3.34h26.74a3.35,3.35,0,0,1,3.34,3.34Z" transform="translate(-16 -13)"/></svg>