<?xml version="1.0" encoding="utf-8"?>
<!-- Generator: Adobe Illustrator 21.0.0, SVG Export Plug-In . SVG Version: 6.00 Build 0)  -->
<svg version="1.1" id="Layer_1" xmlns="http://www.w3.org/2000/svg" xmlns:xlink="http://www.w3.org/1999/xlink" x="0px" y="0px"
	 viewBox="0 0 500 500" style="enable-background:new 0 0 500 500;" xml:space="preserve">
<style type="text/css">
	.st0{fill-rule:evenodd;clip-rule:evenodd;fill:#FFFFFF;}
	.st1{fill-rule:evenodd;clip-rule:evenodd;fill:#F26722;}
</style>
<g>
	<path class="st0" d="M250,497.5c136.7,0,247.5-110.8,247.5-247.5C497.5,113.3,386.7,2.5,250,2.5C113.3,2.5,2.5,113.3,2.5,250
		C2.5,386.7,113.3,497.5,250,497.5"/>
	<path class="st1" d="M248.9,109.4c-77.9,0.1-141,64-140.9,141.8c0.1,77.9,64,141,141.8,140.9c77.9-0.1,141-64,140.9-141.8
		C390.7,172.4,327.6,109.4,248.9,109.4 M264.8,336.7l-0.1,35.5l-21.2,0.1l0.1-35.5c-16.8-0.7-32.1-8.8-48.2-17.8v-30.5
		c16.7,14.3,25.7,20.2,47.5,25.3c4.1,0.8,15,1.2,21.2-0.1c14.2-3.2,21.4-10.2,21.2-22.1c0.3-10.1-6-17.2-21.6-23.7
		c-4.7-1.8-33.1-12.4-38.5-15.1c-20.9-10-29.9-24.4-30.7-38.1c-0.3-24.6,18.3-42.1,47.2-46.7v-30.5l21.2-0.1v30.5
		c11.6,1.4,28.2,7.2,37.7,14.9l-0.2,27c-9.3-8.6-24.7-16.6-37.6-20c0,0-7.2-2.2-21.2,0.1c-13.2,2.5-22.4,10.9-22.7,21
		c-0.3,10.1,6.8,17.4,22.8,22.2l20.7,6.6c28.9,8.1,45.7,25.8,46.4,48.8C310.8,309.2,295.9,333.4,264.8,336.7 M433.1,250.1
		c0.1-100.7-82.9-182.8-183.6-182.9C148.9,67.1,66.7,150.1,66.6,250.8c-0.1,100.7,82.9,182.8,183.6,182.9
		C350.9,433.8,432.9,351.6,433.1,250.1 M250.1,416.7c-91.4,0-165.9-73.7-165.9-165.1c0-91.4,73.7-165.9,165.1-165.9
		c91.4,0,165.9,73.7,165.9,165.1C415.4,341.4,341.7,415.9,250.1,416.7"/>
</g>
</svg>
