<?xml version="1.0" encoding="utf-8"?>
<!-- Generator: Adobe Illustrator 21.0.0, SVG Export Plug-In . SVG Version: 6.00 Build 0)  -->
<svg version="1.1" id="Layer_1" xmlns="http://www.w3.org/2000/svg" xmlns:xlink="http://www.w3.org/1999/xlink" x="0px" y="0px"
	 viewBox="0 0 500 500" style="enable-background:new 0 0 500 500;" xml:space="preserve">
<style type="text/css">
	.st0{fill-rule:evenodd;clip-rule:evenodd;fill:#FFFFFF;}
	.st1{fill-rule:evenodd;clip-rule:evenodd;fill:#F26722;}
	.st2{fill:#F26722;}
</style>
<g>
	<path class="st0" d="M250,497.5c136.7,0,247.5-110.8,247.5-247.5C497.5,113.3,386.7,2.5,250,2.5C113.3,2.5,2.5,113.3,2.5,250
		C2.5,386.7,113.3,497.5,250,497.5"/>
	<path class="st1" d="M250.7,198.5c14.5,0,25.9,11.4,25.9,25.9c0,14.5-11.4,25.9-25.9,25.9c-14.5,0-25.9-11.4-25.9-25.9
		C225.3,209.9,236.7,198.5,250.7,198.5"/>
	<path class="st2" d="M165.3,121c0-14.5-11.3-26.3-25.2-26.3c-13.9,0-25.2,11.8-25.2,26.3c0,14.5,11.3,26.3,25.2,26.3
		C154,147.3,165.3,135.5,165.3,121"/>
	<path class="st2" d="M389.5,134.3c0-14.5-11.3-26.3-25.2-26.3c-13.9,0-25.2,11.8-25.2,26.3c0,14.5,11.3,26.3,25.2,26.3
		C378.2,160.7,389.5,148.9,389.5,134.3"/>
	<path class="st2" d="M253.5,335.6v48.8c0,1.8,0.3,3.4,0.9,4.8c0.6,1.5,1.6,2.9,2.8,4.1c1.3,1.3,2.6,2.2,4.1,2.8
		c1.5,0.6,3.1,0.9,4.8,0.9c1.7,0,3.4-0.3,4.9-0.9c1.5-0.6,2.9-1.6,4.1-2.8c1.2-1.2,2.2-2.6,2.8-4.1c0.6-1.5,1-3.1,1-4.8
		c0,0,0-90.9,0-95.6c0-2.3,1.8-1.5,3,1c2.7,6,10,20.2,13.6,27.7c2.1,4.3,7.8,5.1,11.7,3.1c3.5-1.8,5.7-6.5,3.7-10.9
		c-1.4-3.2-8.2-17.5-11.8-24.6c-4.2-8.5-10-20.9-16.9-25.2c-7.3-4.5-28-3.6-32.2-3.6c-4.1,0-24.8-0.9-32.2,3.6
		c-6.9,4.3-12.7,16.7-16.9,25.2c-3.6,7.2-10.4,21.4-11.8,24.6c-2,4.4,0.2,9.1,3.7,10.9c3.9,2,9.6,1.2,11.7-3.1
		c3.6-7.5,10.9-21.6,13.6-27.7c1.1-2.5,3-3.2,3-1c0,4.7,0,95.6,0,95.6c0,1.8,0.3,3.4,0.9,4.8c0.6,1.5,1.6,2.9,2.8,4.1
		c1.2,1.3,2.6,2.2,4.1,2.8c1.5,0.6,3.1,0.9,4.8,0.9c1.7,0,3.4-0.3,4.9-0.9c1.5-0.6,2.9-1.6,4.1-2.8c1.3-1.2,2.2-2.6,2.8-4.1
		c0.6-1.5,0.9-3.1,0.9-4.8v-48.8H253.5z"/>
	<path class="st2" d="M171.5,209.9c0,7.6,0,51,0,92.6c0,41.5,0,81.2,0,81.2c0,4.1-1.6,7.8-4.1,10.4c-2.5,2.7-6.1,4.3-10,4.3
		c-3.9,0-7.4-1.7-10-4.3c-2.5-2.7-4.1-6.4-4.1-10.4l0-97.8h-6.1l0,97.8c0,4.1-1.6,7.8-4.1,10.4c-2.6,2.7-6.1,4.3-10,4.3
		c-3.9,0-7.4-1.7-10-4.3c-2.6-2.7-4.1-6.4-4.1-10.4c0,0,0-39.6,0-81.2c0-41.5,0-85,0-92.6c0-5.5-0.5-7.1-1.3-6.6
		c-0.8,0.5-1.9,3.1-3,5.9c0,0-15.5,41.7-20.2,52.6c-3.8,8.9-11.2,8.3-14.4,7.1c-3.8-1.4-7.8-6.8-6.4-11.6c0,0,15.6-48.6,22.4-64.8
		c4.2-11.9,9.3-21.3,15.7-27.8c6.4-6.5,14.2-10,24-10h14.6h14.4c69.4,2,128,12.6,193.6,12.7h14.8h14.6c14,0,27.1,10.9,32.4,20.5
		l26.3,68.5c1.4,4.8-2.6,10.2-6.4,11.6c-3.2,1.2-10.5,1.8-14.4-7.1c-4.7-10.8-16-43-16-43c-1.2-2.9-2.2-5.5-3-6
		c-0.8-0.5-1.3,1.1-1.3,6.6c0,46.9,12.2,98.3,12.2,98.3l-13-0.2c0,30.3,0,67,0,67c0,4.1-1.6,7.8-4.1,10.4c-2.5,2.7-6.1,4.3-10,4.3
		c-3.9,0-7.4-1.7-10-4.3c-2.5-2.7-4.1-6.4-4.1-10.4l0-66.8h-6.6l0,66.8c0,4.1-1.6,7.8-4.1,10.4c-2.6,2.7-6.1,4.3-10,4.3
		s-7.4-1.7-10-4.3c-2.5-2.7-4.1-6.4-4.1-10.4c0,0,0-36.7,0-67l-13,0.2c0,0,12.2-51.3,12.2-98.3c0-7.5,0.1-11.3-3.4-15.2
		c-5-5.5-33.3-11.9-64.3-16.4c-26.5-3.9-54.9-4.2-70-0.9C177.3,189.6,172.6,194.1,171.5,209.9"/>
</g>
</svg>
