<?xml version="1.0" encoding="utf-8"?>
<!-- Generator: Adobe Illustrator 21.0.0, SVG Export Plug-In . SVG Version: 6.00 Build 0)  -->
<svg version="1.1" id="Layer_1" xmlns="http://www.w3.org/2000/svg" xmlns:xlink="http://www.w3.org/1999/xlink" x="0px" y="0px"
	 viewBox="0 0 500 500" style="enable-background:new 0 0 500 500;" xml:space="preserve">
<style type="text/css">
	.st0{fill-rule:evenodd;clip-rule:evenodd;fill:#FFFFFF;}
	.st1{fill-rule:evenodd;clip-rule:evenodd;fill:#F26722;}
</style>
<g>
	<path class="st0" d="M250,497.5c136.7,0,247.5-110.8,247.5-247.5C497.5,113.3,386.7,2.5,250,2.5S2.5,113.3,2.5,250
		C2.5,386.7,113.3,497.5,250,497.5"/>
	<path class="st1" d="M250,93.4c-16.6,72.3-93.9,160.3-93.9,218.4c0,58.1,37.4,94.7,93.9,94.7c56.5,0,93.9-36.5,93.9-94.7
		C343.8,253.8,266.6,165.7,250,93.4 M250,389.9c-48.2,0-78.1-29.9-78.1-78.1c0-9.1,3.3-23.3,7.5-32.4c2.5-7.5,7.5-5,7.5,1.7
		c1.7,55.7,38.2,91.4,93.8,91.4c5,0,10,0,14.1-0.8c3.3-0.8,5,4.1,2.5,5.8C284.9,385.8,269.1,389.9,250,389.9"/>
</g>
</svg>
