<?xml version="1.0" encoding="utf-8"?>
<!-- Generator: Adobe Illustrator 21.0.0, SVG Export Plug-In . SVG Version: 6.00 Build 0)  -->
<svg version="1.1" id="Layer_1" xmlns="http://www.w3.org/2000/svg" xmlns:xlink="http://www.w3.org/1999/xlink" x="0px" y="0px"
	 viewBox="0 0 500 500" style="enable-background:new 0 0 500 500;" xml:space="preserve">
<style type="text/css">
	.st0{fill-rule:evenodd;clip-rule:evenodd;fill:#FFFFFF;}
	.st1{fill:#F26722;}
</style>
<g>
	<path class="st0" d="M250,497.5c136.7,0,247.5-110.8,247.5-247.5C497.5,113.3,386.7,2.5,250,2.5C113.3,2.5,2.5,113.3,2.5,250
		C2.5,386.7,113.3,497.5,250,497.5"/>
	<path class="st1" d="M363.1,184.4l-24.1-24.1L174.6,324.8h1.7c5.8,0,11.6,2.5,16.6,6.6c4.1,4.2,6.6,10,6.6,16.6v1.7L363.1,184.4z"
		/>
	<path class="st1" d="M167.1,310.6l161.1-161.1L310,131.2L146.4,294.9c5.8,0,10.8,2.5,14.9,6.6C163.8,304,166.3,307.3,167.1,310.6"
		/>
	<path class="st1" d="M112.3,390.4l-7.5,26.6l26.6-7.5c-0.8-5-3.3-9.1-6.6-12.5C121.5,393.7,117.3,391.2,112.3,390.4"/>
	<path class="st1" d="M422.1,142l-40.7-40.7c-5.8-5.8-12.5-8.3-19.9-8.3c-7.5,0-15,3.3-19.9,8.3l-19.1,19.1l81.4,81.4l19.1-19.1
		c5.8-5.8,8.3-12.5,8.3-19.9C430.4,154.5,427.1,147,422.1,142"/>
	<path class="st1" d="M212,355.5c3.3,0.8,6.6,3.3,9.1,5.8c4.1,4.2,6.6,9.1,6.6,14.9l163.6-163.6l-18.3-18.3L212,355.5z"/>
	<path class="st1" d="M207,367.1h-13.3c-2.5,0-4.2-0.8-5.8-2.5c-1.7-1.7-2.5-4.1-2.5-5.8v-13.3c0-2.5-0.8-4.2-2.5-5.8
		c-1.7-1.7-4.1-2.5-5.8-2.5h-13.3c-2.5,0-4.2-0.8-5.8-2.5c-1.7-1.7-2.5-3.3-2.5-5.8v-13.3c0-2.5-0.8-4.2-2.5-5.8
		c-1.7-1.7-4.2-2.5-5.8-2.5h-13.3l-19.1,70.6c7.5,1.7,14.1,5,19.1,10.8c5,5,9.1,11.6,10.8,19.1l70.6-19.1v-13.3
		c0-2.5-0.8-4.1-2.5-5.8C211.2,368,208.7,367.1,207,367.1"/>
</g>
</svg>
