<?xml version="1.0" encoding="utf-8"?>
<!-- Generator: Adobe Illustrator 21.0.0, SVG Export Plug-In . SVG Version: 6.00 Build 0)  -->
<svg version="1.1" id="Layer_1" xmlns="http://www.w3.org/2000/svg" xmlns:xlink="http://www.w3.org/1999/xlink" x="0px" y="0px"
	 viewBox="0 0 500 500" style="enable-background:new 0 0 500 500;" xml:space="preserve">
<style type="text/css">
	.st0{fill-rule:evenodd;clip-rule:evenodd;fill:#FFFFFF;}
	.st1{fill-rule:evenodd;clip-rule:evenodd;fill:#F26722;}
</style>
<g>
	<path class="st0" d="M250,497.5c136.7,0,247.5-110.8,247.5-247.5C497.5,113.3,386.7,2.5,250,2.5C113.3,2.5,2.5,113.3,2.5,250
		C2.5,386.7,113.3,497.5,250,497.5"/>
	<path class="st1" d="M362.5,155.3h-50.8c-0.4-38.1-34.2-67.5-72.9-61.4c-25.7,4.1-46.5,24.9-50.7,50.7c-0.6,3.7-0.7,7.3-0.7,10.8
		h-50c-21.6,0-39,17.5-39,39v144.5c0,21.6,17.4,39,39,39h225.1c21.6,0,39-17.4,39-39V194.3C401.6,172.8,384.1,155.3,362.5,155.3
		 M257.9,115.5c15.8,3.3,29.1,16.6,32.4,31.5c0.5,2.8,0.6,5.6,0.5,8.3h-81.7C209.7,130,232.4,110.2,257.9,115.5 M317.7,286.5
		c0,0.8-0.8,1.7-1.7,1.7h-43.2c-0.8,0-1.7,0.8-1.7,1.7V333c0,0.8-0.8,1.7-1.7,1.7h-39.9c-0.8,0-1.7-0.8-1.7-1.7v-43.2
		c0-0.8-0.8-1.7-1.7-1.7h-43.2c-0.8,0-1.7-0.8-1.7-1.7v-39.9c0-0.8,0.8-1.7,1.7-1.7h43.2c0.8,0,1.7-0.8,1.7-1.7v-43.2
		c0-0.8,0.8-1.7,1.7-1.7h39.9c0.8,0,1.7,0.8,1.7,1.7v43.2c0,0.8,0.8,1.7,1.7,1.7H316c0.8,0,0.8,0.8,1.7,1.7V286.5z"/>
</g>
</svg>
