<?xml version="1.0" encoding="utf-8"?>
<!-- Generator: Adobe Illustrator 21.0.0, SVG Export Plug-In . SVG Version: 6.00 Build 0)  -->
<svg version="1.1" id="Layer_1" xmlns="http://www.w3.org/2000/svg" xmlns:xlink="http://www.w3.org/1999/xlink" x="0px" y="0px"
	 viewBox="0 0 500 500" style="enable-background:new 0 0 500 500;" xml:space="preserve">
<style type="text/css">
	.st0{fill-rule:evenodd;clip-rule:evenodd;fill:#FFFFFF;}
	.st1{fill-rule:evenodd;clip-rule:evenodd;fill:#F26722;}
</style>
<g>
	<path class="st0" d="M250,497.5c136.7,0,247.5-110.8,247.5-247.5C497.5,113.3,386.7,2.5,250,2.5C113.3,2.5,2.5,113.3,2.5,250
		C2.5,386.7,113.3,497.5,250,497.5"/>
	<path class="st1" d="M197.3,229.2c-1.7,0.8-3.3,2.5-5,3.3c-2.5,2.5-5,5.8-5.8,9.1c5,9.1,10,18.3,15,27.4l0.8-0.8
		c0.8-0.8,1.7-1.7,2.5-2.5c0.8,0,2.5-1.7,2.5-2.5c-2.5-1.7-4.2-4.2-5-7.5c-1.7-5-2.5-10-0.8-15c0.8-2.5,1.7-4.1,3.3-5.8
		c0.8-0.8,1.7-1.7,2.5-2.5c0.8,0,0.8-0.8,1.7-0.8c0.8-0.8,0.8-1.7,0-1.7c-1.7-1.7-2.5-4.2-3.3-5.8c-1.7-5-2.5-10.8,0-15.8
		c0.8-2.5,2.5-4.1,4.1-5.8c0.8-0.8,1.7-1.7,2.5-2.5c0.8-0.9,0.8-0.9,1.7-1.7c0.8-0.8,0.8-1.7,0-1.7c-1.7-1.7-2.5-4.2-3.3-5.8
		c-1.7-5-1.7-10.8,0-15.8c0.8-2.5,2.5-4.1,4.2-5.8c0.8-0.8,1.7-1.7,2.5-2.5c0.8,0,0.8-0.9,1.7-0.9c0.8-0.8,0.8-1.7,0-1.7
		c-1.7-1.7-2.5-4.1-3.3-5.8c-1.7-5-1.7-10.8,0.8-15c0.8-2.5,2.5-4.2,5-5.8c0.8-0.8,1.7-1.7,2.5-2.5c0.8,0,0.8-0.8,1.7-0.8
		c0.8-0.8,0.8-1.7,0-1.7c-2.5-3.3-3.3-8.3-2.5-12.5c0.8-4.2,2.5-8.3,5.8-10.8c0.8-0.8,1.7-1.7,2.5-1.7c0.8-0.8,1.7-0.8,3.3-0.8
		c0.8,0,1.7,0.8,2.5,1.7c0.8,0.8,0,1.7-0.8,2.5c-0.8,1.7-2.5,3.3-3.3,5c-1.7,2.5-1.7,4.2-2.5,6.7c0,3.3,0.8,6.7,3.3,9.1
		c0.8,1.7,0.8,4.2-0.8,5c-1.7,0.8-2.5,2.5-3.3,3.3c-1.7,1.7-3.3,4.2-4.1,5.8c-0.8,2.5-1.7,5-0.8,7.5c0,4.1,1.7,9.1,4.2,12.5
		c0.8,0.9,0,1.7,0,1.7c-1.7,1.7-3.3,3.3-5,5c-3.3,4.2-5,9.1-4.2,14.1c0,4.1,1.7,9.1,5,12.5c0.8,0.9,0.8,1.7,0,1.7
		c-1.7,1.7-3.3,3.3-5,5c-3.3,4.2-4.1,9.1-4.1,14.1c0.8,4.1,2.5,9.1,5,12.5c0.8,0.8,0.8,1.7,0,1.7c-1.7,1.7-3.3,3.3-5,5
		c-3.3,4.2-4.2,9.1-3.3,14.1c0.8,4.1,2.5,8.3,5.8,11.6c0.8,0.8,0.8,1.7,0,1.7c-1.7,1.7-3.3,3.3-5,5c-1.7,1.7-3.3,3.3-4.1,5.8
		c-0.8,1.7-0.8,3.3-0.8,5c11.6,24.9,22.4,50.7,32.4,73.9c4.1,9.1,7.5,18.3,11.6,26.6c5-11.6,10-24.9,15-38.2
		c11.6-30.7,24.9-65.6,41.5-96.3c0.8-1.7,1.7-2.5,2.5-4.1c0-5-2.5-8.3-5.8-11.6c-1.7-1.7-3.3-2.5-5-3.3c5.8-4.2,9.1-10,7.5-16.6
		c-0.8-5-3.3-10-7.5-13.3c-1.7-1.7-3.3-2.5-5-3.3c5-4.1,7.5-10,6.6-16.6c-0.8-5-4.1-10-8.3-13.3c-1.7-1.7-3.3-2.5-5-3.3
		c5-4.1,6.7-10,5-16.6c-1.7-5-4.1-9.1-8.3-13.3c-0.8-0.8-2.5-1.7-3.3-2.5l-1.7-0.8l0.8-0.8c3.3-4.2,4.1-9.1,2.5-15.8
		c-1.7-5-5-9.1-9.1-13.3c-0.8-0.8-1.7-0.8-1.7-1.7c0-0.8-0.8-2.5-0.8-3.3c-6.6-18.3-14.9-31.6-23.3-31.6c-8.3,0-16.6,12.5-23.3,31.6
		c-0.8,0.8-0.8,2.5-0.8,3.3c-0.8,0.8-1.7,0.8-1.7,1.7c-4.2,3.3-7.5,8.3-9.1,13.3c-1.7,5.8-0.8,11.6,2.5,15.8l0.8,0.8l-1.7,0.8
		c-0.8,0.8-2.5,1.7-3.3,2.5c-4.2,3.3-7.5,8.3-8.3,13.3c-1.7,6.6,0,12.5,5,16.6c-1.7,0.8-3.3,2.5-5,3.3c-4.2,3.3-7.5,8.3-8.3,13.3
		c-1.7,6.6,0.8,13.3,6.6,16.6c-1.7,0.8-3.3,2.5-5,3.3c-4.2,3.3-6.6,8.3-7.5,13.3C189,219.3,192.3,225.9,197.3,229.2"/>
	<path class="st1" d="M316,227.6c0.8,0.8,1.7,2.5,2.5,3.3c5-7.5,9.1-15,14.1-21.6c6.6-18.3,14.9-35.7,27.4-51.5
		c1.7-1.7,0-4.1-2.5-4.1c-9.1,0.8-25.8,5.8-44,25.8c0,5-0.8,9.1-2.5,13.3c5,5.8,7.5,11.6,8.3,17.4
		C320.2,215.9,319.3,222.6,316,227.6"/>
	<path class="st1" d="M165.7,208.5c5,6.6,10.8,14.1,15.8,21.6c0.8-0.8,0.8-1.7,1.7-2.5c-3.3-5-4.2-11.6-3.3-17.4
		c0.8-5.8,3.3-11.6,8.3-16.6c-1.7-4.1-2.5-8.3-2.5-13.3c-18.3-19.9-35.7-24.9-44-25.7c-2.5,0-3.3,2.5-2.5,4.1
		C150.7,173.6,159.1,191,165.7,208.5"/>
	<path class="st1" d="M123.3,181.9c-0.8,0-0.8-0.8-1.7-0.8c-1.7,0-3.3,2.5-1.7,4.2c14.9,21.6,32.4,62.3,41.5,103
		c9.1,41.5,11.6,67.3,20.8,93.8c7.5,21.6,21.6,34.9,35.7,44c3.3,2.5,6.6,3.3,9.1,4.1c0-1.7,0.8-4.1,3.3-5.8
		c5.8-5.8,11.6-15.8,17.4-29.1C218.8,329.7,180.6,218.4,123.3,181.9"/>
	<path class="st1" d="M378.3,181.9h-1.7C302.7,228.4,272,397,237.1,431.9c-1.7,1.7,0,3.3,1.7,4.1c2.5,0.8,6.7,0.8,10,0.8
		c20.8,0,53.2-11.6,68.9-54c10-26.6,12.5-53.1,20.8-93.9c9.1-40.7,25.7-82.2,41.5-103C381.6,184.4,380,181.9,378.3,181.9"/>
</g>
</svg>
